<svg xmlns="http://www.w3.org/2000/svg" xmlns:xlink="http://www.w3.org/1999/xlink" width="800" zoomAndPan="magnify" viewBox="0 0 600 599.999999" height="800" preserveAspectRatio="xMidYMid meet" version="1.0"><defs><clipPath id="fc17fd7533"><path d="M 97.109375 97.109375 L 502.890625 97.109375 L 502.890625 502.890625 L 97.109375 502.890625 Z M 97.109375 97.109375 " clip-rule="nonzero"/></clipPath><clipPath id="33c72c02fd"><path d="M 300 97.109375 C 187.949219 97.109375 97.109375 187.949219 97.109375 300 C 97.109375 412.050781 187.949219 502.890625 300 502.890625 C 412.050781 502.890625 502.890625 412.050781 502.890625 300 C 502.890625 187.949219 412.050781 97.109375 300 97.109375 Z M 300 97.109375 " clip-rule="nonzero"/></clipPath><clipPath id="756482bdcd"><path d="M 0.109375 0.109375 L 405.890625 0.109375 L 405.890625 405.890625 L 0.109375 405.890625 Z M 0.109375 0.109375 " clip-rule="nonzero"/></clipPath><clipPath id="161578daf5"><path d="M 203 0.109375 C 90.949219 0.109375 0.109375 90.949219 0.109375 203 C 0.109375 315.050781 90.949219 405.890625 203 405.890625 C 315.050781 405.890625 405.890625 315.050781 405.890625 203 C 405.890625 90.949219 315.050781 0.109375 203 0.109375 Z M 203 0.109375 " clip-rule="nonzero"/></clipPath><clipPath id="96de1d4a9e"><rect x="0" width="406" y="0" height="406"/></clipPath><clipPath id="d77fb6e4c4"><path d="M 212.851562 212.667969 L 386.851562 212.667969 L 386.851562 387.417969 L 212.851562 387.417969 Z M 212.851562 212.667969 " clip-rule="nonzero"/></clipPath></defs><g clip-path="url(#fc17fd7533)"><g clip-path="url(#33c72c02fd)"><g transform="matrix(1, 0, 0, 1, 97, 97)"><g clip-path="url(#96de1d4a9e)"><g clip-path="url(#756482bdcd)"><g clip-path="url(#161578daf5)"><path fill="#f1f6ec" d="M 0.109375 0.109375 L 405.890625 0.109375 L 405.890625 405.890625 L 0.109375 405.890625 Z M 0.109375 0.109375 " fill-opacity="1" fill-rule="nonzero"/></g></g></g></g></g></g><g clip-path="url(#d77fb6e4c4)"><path fill="#5bab3b" d="M 299.847656 212.945312 C 299.136719 212.957031 298.429688 213.035156 297.734375 213.1875 C 297.035156 213.335938 296.359375 213.550781 295.703125 213.835938 C 295.050781 214.117188 294.429688 214.460938 293.839844 214.867188 C 293.253906 215.273438 292.710938 215.730469 292.214844 216.242188 C 291.71875 216.753906 291.273438 217.308594 290.886719 217.90625 C 290.5 218.503906 290.171875 219.136719 289.910156 219.796875 C 289.644531 220.460938 289.449219 221.144531 289.320312 221.84375 C 289.1875 222.546875 289.128906 223.253906 289.136719 223.964844 L 289.109375 285.621094 L 223.855469 285.707031 C 223.136719 285.695312 222.421875 285.757812 221.710938 285.890625 C 221.003906 286.023438 220.316406 286.226562 219.648438 286.496094 C 218.976562 286.765625 218.34375 287.097656 217.742188 287.496094 C 217.136719 287.890625 216.582031 288.339844 216.066406 288.847656 C 215.554688 289.355469 215.097656 289.90625 214.695312 290.503906 C 214.292969 291.101562 213.953125 291.734375 213.675781 292.402344 C 213.398438 293.066406 213.1875 293.753906 213.046875 294.460938 C 212.90625 295.167969 212.835938 295.878906 212.835938 296.601562 C 212.835938 297.320312 212.910156 298.035156 213.050781 298.742188 C 213.195312 299.449219 213.40625 300.132812 213.683594 300.800781 C 213.964844 301.464844 214.304688 302.09375 214.710938 302.691406 C 215.113281 303.289062 215.574219 303.839844 216.085938 304.34375 C 216.601562 304.851562 217.160156 305.300781 217.765625 305.695312 C 218.367188 306.089844 219.003906 306.421875 219.671875 306.6875 C 220.34375 306.957031 221.03125 307.15625 221.742188 307.285156 C 222.449219 307.417969 223.164062 307.476562 223.886719 307.46875 L 289.109375 307.382812 L 289.082031 376.175781 C 289.070312 376.898438 289.132812 377.613281 289.265625 378.320312 C 289.394531 379.03125 289.597656 379.71875 289.863281 380.386719 C 290.132812 381.058594 290.464844 381.691406 290.859375 382.296875 C 291.257812 382.898438 291.707031 383.457031 292.214844 383.96875 C 292.71875 384.484375 293.269531 384.941406 293.867188 385.347656 C 294.464844 385.75 295.097656 386.089844 295.761719 386.367188 C 296.425781 386.648438 297.113281 386.855469 297.820312 387 C 298.527344 387.140625 299.242188 387.210938 299.960938 387.210938 C 300.683594 387.210938 301.398438 387.140625 302.101562 387 C 302.808594 386.855469 303.496094 386.648438 304.160156 386.367188 C 304.828125 386.089844 305.457031 385.75 306.054688 385.347656 C 306.652344 384.941406 307.203125 384.484375 307.710938 383.96875 C 308.214844 383.457031 308.667969 382.898438 309.0625 382.296875 C 309.457031 381.691406 309.789062 381.058594 310.058594 380.386719 C 310.328125 379.71875 310.527344 379.03125 310.660156 378.320312 C 310.792969 377.613281 310.851562 376.898438 310.84375 376.175781 L 310.871094 307.324219 L 376.09375 307.238281 C 376.816406 307.25 377.53125 307.183594 378.238281 307.050781 C 378.945312 306.917969 379.636719 306.714844 380.304688 306.445312 C 380.972656 306.175781 381.605469 305.839844 382.207031 305.445312 C 382.808594 305.046875 383.367188 304.59375 383.878906 304.085938 C 384.390625 303.578125 384.847656 303.027344 385.25 302.429688 C 385.652344 301.828125 385.992188 301.199219 386.265625 300.53125 C 386.542969 299.867188 386.75 299.179688 386.890625 298.472656 C 387.03125 297.765625 387.101562 297.050781 387.097656 296.332031 C 387.097656 295.609375 387.023438 294.898438 386.878906 294.191406 C 386.738281 293.484375 386.523438 292.796875 386.246094 292.132812 C 385.964844 291.46875 385.621094 290.839844 385.21875 290.242188 C 384.8125 289.648438 384.351562 289.097656 383.839844 288.59375 C 383.324219 288.085938 382.765625 287.636719 382.160156 287.246094 C 381.558594 286.851562 380.921875 286.519531 380.25 286.253906 C 379.582031 285.984375 378.890625 285.789062 378.183594 285.65625 C 377.472656 285.527344 376.757812 285.46875 376.039062 285.480469 L 310.871094 285.566406 L 310.898438 223.996094 C 310.910156 223.265625 310.847656 222.542969 310.714844 221.828125 C 310.582031 221.109375 310.378906 220.414062 310.105469 219.738281 C 309.832031 219.0625 309.492188 218.421875 309.089844 217.816406 C 308.6875 217.207031 308.226562 216.644531 307.710938 216.128906 C 307.199219 215.613281 306.636719 215.15625 306.027344 214.753906 C 305.421875 214.351562 304.78125 214.011719 304.105469 213.738281 C 303.429688 213.464844 302.734375 213.261719 302.015625 213.128906 C 301.300781 212.996094 300.578125 212.933594 299.847656 212.945312 Z M 223.886719 430.632812 C 223.164062 430.625 222.449219 430.683594 221.738281 430.816406 C 221.03125 430.945312 220.34375 431.144531 219.671875 431.414062 C 219.003906 431.679688 218.367188 432.011719 217.765625 432.40625 C 217.160156 432.800781 216.601562 433.25 216.085938 433.757812 C 215.574219 434.261719 215.113281 434.8125 214.710938 435.410156 C 214.304688 436.007812 213.964844 436.636719 213.683594 437.300781 C 213.40625 437.96875 213.195312 438.652344 213.050781 439.359375 C 212.910156 440.066406 212.835938 440.78125 212.835938 441.5 C 212.835938 442.222656 212.90625 442.933594 213.046875 443.640625 C 213.1875 444.347656 213.394531 445.035156 213.671875 445.703125 C 213.949219 446.367188 214.292969 447 214.695312 447.597656 C 215.097656 448.195312 215.554688 448.746094 216.066406 449.253906 C 216.582031 449.761719 217.136719 450.210938 217.738281 450.605469 C 218.34375 451.003906 218.976562 451.335938 219.648438 451.605469 C 220.316406 451.875 221.003906 452.078125 221.710938 452.210938 C 222.421875 452.34375 223.136719 452.40625 223.855469 452.394531 L 376.09375 452.421875 C 376.816406 452.433594 377.53125 452.371094 378.238281 452.242188 C 378.949219 452.109375 379.636719 451.910156 380.304688 451.640625 C 380.976562 451.371094 381.609375 451.039062 382.214844 450.644531 C 382.816406 450.25 383.375 449.796875 383.890625 449.292969 C 384.402344 448.785156 384.859375 448.234375 385.265625 447.636719 C 385.667969 447.039062 386.007812 446.40625 386.289062 445.742188 C 386.566406 445.078125 386.777344 444.390625 386.917969 443.683594 C 387.058594 442.976562 387.128906 442.265625 387.128906 441.542969 C 387.128906 440.824219 387.058594 440.109375 386.917969 439.402344 C 386.777344 438.695312 386.566406 438.007812 386.289062 437.34375 C 386.007812 436.679688 385.667969 436.046875 385.265625 435.449219 C 384.859375 434.851562 384.402344 434.300781 383.890625 433.792969 C 383.375 433.289062 382.816406 432.835938 382.214844 432.441406 C 381.609375 432.046875 380.976562 431.714844 380.304688 431.445312 C 379.636719 431.179688 378.949219 430.976562 378.238281 430.84375 C 377.53125 430.714844 376.816406 430.652344 376.09375 430.664062 Z M 223.886719 430.632812 " fill-opacity="1" fill-rule="nonzero"/></g></svg>