<svg xmlns="http://www.w3.org/2000/svg" xmlns:xlink="http://www.w3.org/1999/xlink" width="800" zoomAndPan="magnify" viewBox="0 0 600 599.999999" height="800" preserveAspectRatio="xMidYMid meet" version="1.0"><defs><clipPath id="aa5bbe93c1"><path d="M 97.109375 97.109375 L 502.890625 97.109375 L 502.890625 502.890625 L 97.109375 502.890625 Z M 97.109375 97.109375 " clip-rule="nonzero"/></clipPath><clipPath id="2f3408da02"><path d="M 300 97.109375 C 187.949219 97.109375 97.109375 187.949219 97.109375 300 C 97.109375 412.050781 187.949219 502.890625 300 502.890625 C 412.050781 502.890625 502.890625 412.050781 502.890625 300 C 502.890625 187.949219 412.050781 97.109375 300 97.109375 Z M 300 97.109375 " clip-rule="nonzero"/></clipPath><clipPath id="c963ff60a4"><path d="M 0.109375 0.109375 L 405.890625 0.109375 L 405.890625 405.890625 L 0.109375 405.890625 Z M 0.109375 0.109375 " clip-rule="nonzero"/></clipPath><clipPath id="09720df185"><path d="M 203 0.109375 C 90.949219 0.109375 0.109375 90.949219 0.109375 203 C 0.109375 315.050781 90.949219 405.890625 203 405.890625 C 315.050781 405.890625 405.890625 315.050781 405.890625 203 C 405.890625 90.949219 315.050781 0.109375 203 0.109375 Z M 203 0.109375 " clip-rule="nonzero"/></clipPath><clipPath id="cc127b3dad"><rect x="0" width="406" y="0" height="406"/></clipPath><clipPath id="f67abb8916"><path d="M 211.199219 203 L 388.949219 203 L 388.949219 420 L 211.199219 420 Z M 211.199219 203 " clip-rule="nonzero"/></clipPath><clipPath id="85df7d9ff2"><path d="M 259 180 L 341 180 L 341 230 L 259 230 Z M 259 180 " clip-rule="nonzero"/></clipPath></defs><g clip-path="url(#aa5bbe93c1)"><g clip-path="url(#2f3408da02)"><g transform="matrix(1, 0, 0, 1, 97, 97)"><g clip-path="url(#cc127b3dad)"><g clip-path="url(#c963ff60a4)"><g clip-path="url(#09720df185)"><path fill="#e6f4fb" d="M 0.109375 0.109375 L 405.890625 0.109375 L 405.890625 405.890625 L 0.109375 405.890625 Z M 0.109375 0.109375 " fill-opacity="1" fill-rule="nonzero"/></g></g></g></g></g></g><g clip-path="url(#f67abb8916)"><path fill="#0085ff" d="M 369.996094 222.570312 C 361.886719 220.8125 355.480469 222.304688 348.507812 221.519531 C 347.941406 215.640625 347.597656 209.957031 348.480469 204.078125 C 357.015625 203.511719 365.085938 203.828125 373.710938 203.796875 C 383.003906 203.761719 388.652344 211.386719 388.664062 220.625 L 388.773438 311.953125 L 388.558594 405.640625 C 388.539062 413.117188 382.160156 419.828125 374.371094 419.835938 L 226.644531 420.007812 C 218.699219 420.019531 211.515625 414.109375 211.5 405.859375 L 211.210938 220.722656 C 211.195312 211.164062 216.640625 203.800781 226.523438 203.761719 C 235 203.722656 243.226562 203.625 251.90625 204.0625 C 252.402344 209.957031 252.316406 215.628906 251.953125 221.671875 C 245.207031 222.285156 239.066406 221.042969 232.269531 222.152344 C 229.792969 222.558594 229.476562 226.789062 229.484375 229.09375 L 229.628906 284.835938 L 229.636719 336.246094 L 229.464844 397.660156 C 229.949219 399.175781 230.160156 401.925781 232.464844 401.925781 L 369.890625 401.851562 L 369.984375 222.5625 Z M 369.996094 222.570312 " fill-opacity="1" fill-rule="nonzero"/></g><g clip-path="url(#85df7d9ff2)"><path fill="#0085ff" d="M 335.050781 229.101562 L 265.128906 229.144531 C 261.859375 229.144531 259.789062 226.535156 259.789062 223.492188 L 259.800781 202.011719 C 259.804688 192.933594 275.167969 198.613281 281.878906 196.265625 C 283.886719 184.628906 294.910156 177 305.949219 181.121094 C 312.375 183.519531 316.183594 189.46875 318.304688 196.105469 C 324.429688 198.632812 340.34375 192.875 340.339844 202.011719 L 340.332031 223.484375 C 340.332031 226.597656 338.382812 229.101562 335.050781 229.101562 Z M 306.695312 197.097656 C 306.695312 193.355469 303.660156 190.320312 299.914062 190.320312 C 296.167969 190.320312 293.132812 193.355469 293.132812 197.097656 C 293.132812 200.84375 296.167969 203.875 299.914062 203.875 C 303.660156 203.875 306.695312 200.84375 306.695312 197.097656 Z M 306.695312 197.097656 " fill-opacity="1" fill-rule="nonzero"/></g><path fill="#0085ff" d="M 350.535156 272.84375 L 299.527344 273.007812 C 297.007812 273.015625 295.542969 270.925781 295.175781 269.519531 C 294.621094 267.394531 296.210938 264.566406 299.402344 264.5625 L 349.402344 264.457031 C 352.277344 264.453125 354.398438 266.117188 354.5 268.332031 C 354.570312 269.886719 353.375 272.84375 350.53125 272.847656 Z M 350.535156 272.84375 " fill-opacity="1" fill-rule="nonzero"/><path fill="#0085ff" d="M 349.371094 363.445312 L 298 363.265625 C 295.445312 363.253906 294.855469 359.945312 295.191406 358.523438 C 295.691406 356.445312 297.90625 354.925781 300.816406 354.929688 L 349.300781 354.972656 C 351.996094 354.972656 354.050781 356.992188 354.332031 358.601562 C 354.828125 361.429688 352.652344 363.460938 349.375 363.445312 Z M 349.371094 363.445312 " fill-opacity="1" fill-rule="nonzero"/><path fill="#0085ff" d="M 349.421875 318.136719 L 299.382812 318.109375 C 296.800781 318.109375 295.132812 316.199219 295.09375 314.152344 C 295.0625 312.492188 296.648438 309.644531 299.5625 309.648438 L 350.230469 309.753906 C 352.964844 309.757812 354.472656 312.65625 354.488281 314.207031 C 354.507812 316.542969 352.367188 318.136719 349.425781 318.136719 Z M 349.421875 318.136719 " fill-opacity="1" fill-rule="nonzero"/><path fill="#0085ff" d="M 259.9375 373.371094 C 256.59375 373.488281 248.121094 363.726562 246.363281 360.820312 C 245.25 358.980469 246.074219 357.21875 247.28125 356.339844 C 248.578125 355.394531 250.609375 354.882812 252.1875 356.183594 L 259.664062 362.335938 C 266.375 358.0625 274.246094 341.289062 280.582031 345.867188 C 281.695312 346.671875 282.632812 349.464844 281.109375 351.226562 L 264.078125 370.875 C 262.84375 372.296875 261.449219 373.320312 259.9375 373.371094 Z M 259.9375 373.371094 " fill-opacity="1" fill-rule="nonzero"/><path fill="#0085ff" d="M 263.15625 281.460938 C 258.9375 286.347656 251.8125 276.835938 247.246094 271.5 C 245.804688 269.816406 245.765625 267.664062 246.476562 266.601562 C 250.511719 260.585938 257.136719 270.710938 260.292969 271.808594 C 265.28125 267.363281 275.085938 251.074219 280.121094 254.976562 C 281.976562 256.414062 282.609375 258.9375 280.953125 260.855469 L 263.160156 281.464844 Z M 263.15625 281.460938 " fill-opacity="1" fill-rule="nonzero"/><path fill="#0085ff" d="M 259.007812 328.226562 C 256.28125 326.613281 243.933594 316.078125 246.5 312.140625 C 247.507812 310.597656 250.386719 309.371094 252.152344 310.816406 L 259.761719 317.042969 L 274.410156 301.394531 C 276.300781 299.371094 278.597656 298.960938 280.28125 300.390625 C 282.113281 301.945312 282.703125 304.398438 280.863281 306.476562 L 264.289062 325.226562 C 263.285156 326.359375 260.800781 329.289062 259.003906 328.226562 Z M 259.007812 328.226562 " fill-opacity="1" fill-rule="nonzero"/></svg>