<svg xmlns="http://www.w3.org/2000/svg" xmlns:xlink="http://www.w3.org/1999/xlink" width="800" zoomAndPan="magnify" viewBox="0 0 600 599.999999" height="800" preserveAspectRatio="xMidYMid meet" version="1.0"><defs><clipPath id="56f0e3a2f6"><path d="M 97.109375 97.109375 L 502.890625 97.109375 L 502.890625 502.890625 L 97.109375 502.890625 Z M 97.109375 97.109375 " clip-rule="nonzero"/></clipPath><clipPath id="95422eb6aa"><path d="M 300 97.109375 C 187.949219 97.109375 97.109375 187.949219 97.109375 300 C 97.109375 412.050781 187.949219 502.890625 300 502.890625 C 412.050781 502.890625 502.890625 412.050781 502.890625 300 C 502.890625 187.949219 412.050781 97.109375 300 97.109375 Z M 300 97.109375 " clip-rule="nonzero"/></clipPath><clipPath id="eb7caccab9"><path d="M 0.109375 0.109375 L 405.890625 0.109375 L 405.890625 405.890625 L 0.109375 405.890625 Z M 0.109375 0.109375 " clip-rule="nonzero"/></clipPath><clipPath id="521a9b037c"><path d="M 203 0.109375 C 90.949219 0.109375 0.109375 90.949219 0.109375 203 C 0.109375 315.050781 90.949219 405.890625 203 405.890625 C 315.050781 405.890625 405.890625 315.050781 405.890625 203 C 405.890625 90.949219 315.050781 0.109375 203 0.109375 Z M 203 0.109375 " clip-rule="nonzero"/></clipPath><clipPath id="3690cf5d55"><rect x="0" width="406" y="0" height="406"/></clipPath><clipPath id="d97bf5413c"><path d="M 180 190.800781 L 420 190.800781 L 420 404 L 180 404 Z M 180 190.800781 " clip-rule="nonzero"/></clipPath><clipPath id="64b5a27f1e"><path d="M 0 125 L 136 125 L 136 213.921875 L 0 213.921875 Z M 0 125 " clip-rule="nonzero"/></clipPath><clipPath id="fdcfd804b1"><rect x="0" width="240" y="0" height="214"/></clipPath></defs><g clip-path="url(#56f0e3a2f6)"><g clip-path="url(#95422eb6aa)"><g transform="matrix(1, 0, 0, 1, 97, 97)"><g clip-path="url(#3690cf5d55)"><g clip-path="url(#eb7caccab9)"><g clip-path="url(#521a9b037c)"><path fill="#e6f4fb" d="M 0.109375 0.109375 L 405.890625 0.109375 L 405.890625 405.890625 L 0.109375 405.890625 Z M 0.109375 0.109375 " fill-opacity="1" fill-rule="nonzero"/></g></g></g></g></g></g><g clip-path="url(#d97bf5413c)"><g transform="matrix(1, 0, 0, 1, 180, 190)"><g clip-path="url(#fdcfd804b1)"><path fill="#0085ff" d="M 118.792969 119.996094 C 123.574219 112.675781 129.574219 106.523438 136.804688 101.882812 C 137.8125 101.230469 139.132812 101.332031 140.097656 102.039062 C 149.144531 108.664062 160.292969 112.578125 172.347656 112.578125 C 184.414062 112.578125 195.5625 108.664062 204.609375 102.039062 C 205.589844 101.332031 206.894531 101.230469 207.914062 101.882812 C 229.316406 115.65625 239.96875 142.628906 239.96875 173.632812 C 239.96875 186.835938 188.570312 191.914062 149.160156 188.820312 C 147.355469 159.605469 136.59375 135.296875 118.792969 119.996094 Z M 118.792969 119.996094 " fill-opacity="1" fill-rule="nonzero"/><path fill="#0085ff" d="M 143.796875 29.34375 C 142.863281 30.28125 141.976562 31.257812 141.136719 32.28125 C 140.296875 33.304688 139.511719 34.363281 138.777344 35.464844 C 138.042969 36.5625 137.363281 37.695312 136.738281 38.863281 C 136.117188 40.03125 135.550781 41.222656 135.042969 42.445312 C 134.539062 43.667969 134.09375 44.910156 133.710938 46.175781 C 133.324219 47.441406 133.003906 48.726562 132.746094 50.023438 C 132.488281 51.320312 132.292969 52.625 132.164062 53.941406 C 132.035156 55.257812 131.96875 56.578125 131.96875 57.902344 C 131.96875 59.222656 132.035156 60.542969 132.164062 61.859375 C 132.292969 63.175781 132.488281 64.480469 132.746094 65.78125 C 133.003906 67.078125 133.324219 68.359375 133.710938 69.625 C 134.09375 70.890625 134.539062 72.132812 135.042969 73.355469 C 135.550781 74.578125 136.117188 75.769531 136.738281 76.9375 C 137.363281 78.105469 138.042969 79.238281 138.777344 80.335938 C 139.511719 81.4375 140.296875 82.5 141.136719 83.519531 C 141.976562 84.542969 142.863281 85.523438 143.796875 86.457031 C 144.734375 87.390625 145.710938 88.28125 146.734375 89.117188 C 147.757812 89.957031 148.820312 90.746094 149.917969 91.480469 C 151.019531 92.214844 152.152344 92.894531 153.316406 93.515625 C 154.484375 94.140625 155.679688 94.707031 156.902344 95.210938 C 158.121094 95.71875 159.367188 96.164062 160.632812 96.546875 C 161.898438 96.929688 163.179688 97.25 164.476562 97.507812 C 165.773438 97.769531 167.082031 97.960938 168.398438 98.089844 C 169.714844 98.222656 171.03125 98.285156 172.355469 98.285156 C 173.679688 98.285156 174.996094 98.222656 176.3125 98.089844 C 177.628906 97.960938 178.9375 97.769531 180.234375 97.507812 C 181.53125 97.25 182.8125 96.929688 184.078125 96.546875 C 185.34375 96.164062 186.585938 95.71875 187.808594 95.210938 C 189.03125 94.707031 190.226562 94.140625 191.390625 93.515625 C 192.558594 92.894531 193.691406 92.214844 194.792969 91.480469 C 195.890625 90.746094 196.953125 89.957031 197.976562 89.117188 C 198.996094 88.28125 199.976562 87.390625 200.910156 86.457031 C 201.847656 85.523438 202.734375 84.542969 203.574219 83.519531 C 204.414062 82.5 205.199219 81.4375 205.933594 80.335938 C 206.667969 79.238281 207.347656 78.105469 207.972656 76.9375 C 208.59375 75.769531 209.160156 74.578125 209.664062 73.355469 C 210.171875 72.132812 210.617188 70.890625 211 69.625 C 211.386719 68.359375 211.707031 67.078125 211.964844 65.78125 C 212.222656 64.480469 212.414062 63.175781 212.546875 61.859375 C 212.675781 60.542969 212.738281 59.222656 212.738281 57.902344 C 212.738281 56.578125 212.675781 55.257812 212.546875 53.941406 C 212.414062 52.625 212.222656 51.320312 211.964844 50.023438 C 211.707031 48.726562 211.386719 47.441406 211 46.175781 C 210.617188 44.910156 210.171875 43.667969 209.664062 42.445312 C 209.160156 41.222656 208.59375 40.03125 207.972656 38.863281 C 207.347656 37.695312 206.667969 36.5625 205.933594 35.464844 C 205.199219 34.363281 204.414062 33.304688 203.574219 32.28125 C 202.734375 31.257812 201.847656 30.28125 200.910156 29.34375 C 199.976562 28.410156 198.996094 27.523438 197.976562 26.683594 C 196.953125 25.84375 195.890625 25.054688 194.792969 24.320312 C 193.691406 23.585938 192.558594 22.90625 191.390625 22.285156 C 190.226562 21.660156 189.03125 21.097656 187.808594 20.589844 C 186.585938 20.082031 185.34375 19.636719 184.078125 19.253906 C 182.8125 18.871094 181.53125 18.550781 180.234375 18.292969 C 178.9375 18.035156 177.628906 17.839844 176.3125 17.710938 C 174.996094 17.582031 173.679688 17.515625 172.355469 17.515625 C 171.03125 17.515625 169.714844 17.582031 168.398438 17.710938 C 167.082031 17.839844 165.773438 18.035156 164.476562 18.292969 C 163.179688 18.550781 161.898438 18.871094 160.632812 19.253906 C 159.367188 19.636719 158.121094 20.082031 156.902344 20.589844 C 155.679688 21.097656 154.484375 21.660156 153.316406 22.285156 C 152.152344 22.90625 151.019531 23.585938 149.917969 24.320312 C 148.820312 25.054688 147.757812 25.84375 146.734375 26.683594 C 145.710938 27.523438 144.734375 28.410156 143.796875 29.34375 Z M 143.796875 29.34375 " fill-opacity="1" fill-rule="nonzero"/><g clip-path="url(#64b5a27f1e)"><path fill="#0085ff" d="M 32.089844 125.988281 C 33.105469 125.335938 34.417969 125.433594 35.390625 126.148438 C 44.429688 132.769531 55.585938 136.6875 67.636719 136.6875 C 79.703125 136.6875 90.847656 132.769531 99.898438 126.144531 C 100.871094 125.433594 102.183594 125.335938 103.195312 125.988281 C 124.609375 139.761719 135.253906 166.734375 135.253906 197.746094 C 135.253906 219.171875 0.03125 219.171875 0.03125 197.746094 C 0.03125 166.734375 10.679688 139.765625 32.089844 125.988281 Z M 32.089844 125.988281 " fill-opacity="1" fill-rule="nonzero"/></g><path fill="#0085ff" d="M 27.257812 82.011719 C 27.257812 83.332031 27.324219 84.652344 27.453125 85.96875 C 27.582031 87.285156 27.777344 88.589844 28.035156 89.890625 C 28.292969 91.1875 28.613281 92.46875 28.996094 93.734375 C 29.382812 95 29.828125 96.242188 30.332031 97.464844 C 30.839844 98.6875 31.402344 99.882812 32.027344 101.046875 C 32.652344 102.214844 33.328125 103.347656 34.066406 104.445312 C 34.800781 105.546875 35.585938 106.609375 36.425781 107.628906 C 37.265625 108.652344 38.152344 109.632812 39.085938 110.566406 C 40.023438 111.5 41 112.390625 42.023438 113.226562 C 43.046875 114.066406 44.105469 114.855469 45.207031 115.589844 C 46.304688 116.324219 47.441406 117.003906 48.605469 117.625 C 49.773438 118.25 50.96875 118.816406 52.1875 119.320312 C 53.410156 119.828125 54.65625 120.273438 55.921875 120.65625 C 57.1875 121.039062 58.46875 121.359375 59.765625 121.617188 C 61.0625 121.875 62.367188 122.070312 63.683594 122.199219 C 65 122.328125 66.320312 122.394531 67.644531 122.394531 C 68.964844 122.394531 70.285156 122.328125 71.601562 122.199219 C 72.917969 122.070312 74.226562 121.875 75.523438 121.617188 C 76.820312 121.359375 78.101562 121.039062 79.367188 120.65625 C 80.632812 120.273438 81.875 119.828125 83.097656 119.320312 C 84.320312 118.816406 85.515625 118.25 86.679688 117.625 C 87.847656 117.003906 88.980469 116.324219 90.078125 115.589844 C 91.179688 114.855469 92.242188 114.066406 93.261719 113.226562 C 94.285156 112.390625 95.265625 111.5 96.199219 110.566406 C 97.136719 109.632812 98.023438 108.652344 98.859375 107.628906 C 99.699219 106.609375 100.488281 105.546875 101.222656 104.445312 C 101.957031 103.347656 102.636719 102.214844 103.257812 101.046875 C 103.882812 99.882812 104.449219 98.6875 104.953125 97.464844 C 105.460938 96.242188 105.90625 95 106.289062 93.734375 C 106.671875 92.46875 106.992188 91.1875 107.253906 89.890625 C 107.511719 88.589844 107.703125 87.285156 107.832031 85.96875 C 107.964844 84.652344 108.027344 83.332031 108.027344 82.011719 C 108.027344 80.6875 107.964844 79.367188 107.832031 78.050781 C 107.703125 76.734375 107.511719 75.429688 107.253906 74.132812 C 106.992188 72.835938 106.671875 71.554688 106.289062 70.285156 C 105.90625 69.019531 105.460938 67.777344 104.953125 66.554688 C 104.449219 65.332031 103.882812 64.140625 103.257812 62.972656 C 102.636719 61.804688 101.957031 60.671875 101.222656 59.574219 C 100.488281 58.472656 99.699219 57.414062 98.859375 56.390625 C 98.023438 55.367188 97.136719 54.390625 96.199219 53.453125 C 95.265625 52.519531 94.285156 51.632812 93.261719 50.792969 C 92.242188 49.953125 91.179688 49.167969 90.078125 48.429688 C 88.980469 47.695312 87.847656 47.015625 86.679688 46.394531 C 85.515625 45.769531 84.320312 45.207031 83.097656 44.699219 C 81.875 44.195312 80.632812 43.75 79.367188 43.363281 C 78.101562 42.980469 76.820312 42.660156 75.523438 42.402344 C 74.226562 42.144531 72.917969 41.949219 71.601562 41.820312 C 70.285156 41.691406 68.964844 41.625 67.644531 41.625 C 66.320312 41.625 65 41.691406 63.683594 41.820312 C 62.367188 41.949219 61.0625 42.144531 59.765625 42.402344 C 58.46875 42.660156 57.1875 42.980469 55.921875 43.363281 C 54.65625 43.75 53.410156 44.195312 52.1875 44.699219 C 50.96875 45.207031 49.773438 45.769531 48.605469 46.394531 C 47.441406 47.015625 46.304688 47.695312 45.207031 48.429688 C 44.105469 49.167969 43.046875 49.953125 42.023438 50.792969 C 41 51.632812 40.023438 52.519531 39.085938 53.453125 C 38.152344 54.390625 37.265625 55.367188 36.425781 56.390625 C 35.585938 57.414062 34.800781 58.472656 34.066406 59.574219 C 33.328125 60.671875 32.652344 61.804688 32.027344 62.972656 C 31.402344 64.140625 30.839844 65.332031 30.332031 66.554688 C 29.828125 67.777344 29.382812 69.019531 28.996094 70.285156 C 28.613281 71.554688 28.292969 72.835938 28.035156 74.132812 C 27.777344 75.429688 27.582031 76.734375 27.453125 78.050781 C 27.324219 79.367188 27.257812 80.6875 27.257812 82.011719 Z M 27.257812 82.011719 " fill-opacity="1" fill-rule="nonzero"/></g></g></g></svg>